# xmcd CD database file
#
# Track frame offsets:
#	150
#	10296
#	32763
#	54909
#	78741
#	99989
#	123855
#	146901
#	167763
#	191135
#	214057
#	235839
#	258083
#	280237
#	300900
#	322542
#
# Disc length: 4459 seconds
#
# Revision: 0
# Processed by: cddbd v1.5.2PL0 Copyright (c) Steve Scherf et al.
# Submitted via: CDex 1.51
#
DISCID=ce116910
DTITLE=Eoin Colfer - Artemis Fowl 7 - Der Atlantis-Komplex
DYEAR=2011
DGENRE=Hörbuch
TTITLE0=Der Atlantis-Komplex CD 6_01
TTITLE1=Der Atlantis-Komplex CD 6_02
TTITLE2=Der Atlantis-Komplex CD 6_03
TTITLE3=Der Atlantis-Komplex CD 6_04
TTITLE4=Der Atlantis-Komplex CD 6_05
TTITLE5=Der Atlantis-Komplex CD 6_06
TTITLE6=Der Atlantis-Komplex CD 6_07
TTITLE7=Der Atlantis-Komplex CD 6_08
TTITLE8=Der Atlantis-Komplex CD 6_09
TTITLE9=Der Atlantis-Komplex CD 6_10
TTITLE10=Der Atlantis-Komplex CD 6_11
TTITLE11=Der Atlantis-Komplex CD 6_12
TTITLE12=Der Atlantis-Komplex CD 6_13
TTITLE13=Der Atlantis-Komplex CD 6_14
TTITLE14=Der Atlantis-Komplex CD 6_15
TTITLE15=Der Atlantis-Komplex CD 6_16
EXTD=YEAR: 2011
EXTT0=
EXTT1=
EXTT2=
EXTT3=
EXTT4=
EXTT5=
EXTT6=
EXTT7=
EXTT8=
EXTT9=
EXTT10=
EXTT11=
EXTT12=
EXTT13=
EXTT14=
EXTT15=
PLAYORDER=
